# xmcd
#
# Track frame offsets:
#	150
#	17255
#	33579
#	53275
#	74417
#	98227
#	114808
#	136482
#	151861
#
# Disc length: 2338 seconds
#
# Revision: 1
# Processed by: cddbd v1.5.2PL0 Copyright (c) Steve Scherf et al.
# Submitted via: audiograbber 1.83.01
#
DISCID=63092009
DTITLE=Lisa Hart - Ticket to Freedom
DYEAR=2007
DGENRE=Blues
TTITLE0=Bottoms Up Boys
TTITLE1=Ticket to Freedom
TTITLE2=I Fall in Love Again
TTITLE3=Don't Do That
TTITLE4=Nobody Told Us
TTITLE5=Stolen Moments
TTITLE6=Forbidden
TTITLE7=Where the Devil's Been
TTITLE8=Lessons on Love
EXTD=
EXTT0=
EXTT1=
EXTT2=
EXTT3=
EXTT4=
EXTT5=
EXTT6=
EXTT7=
EXTT8=
PLAYORDER=
